<?xml version="1.0" encoding="utf-8"?>
<!-- Generator: Adobe Illustrator 16.0.0, SVG Export Plug-In . SVG Version: 6.00 Build 0)  -->
<!DOCTYPE svg PUBLIC "-//W3C//DTD SVG 1.1//EN" "http://www.w3.org/Graphics/SVG/1.1/DTD/svg11.dtd">
<svg version="1.1" id="Layer_1" xmlns="http://www.w3.org/2000/svg" xmlns:xlink="http://www.w3.org/1999/xlink" x="0px" y="0px"
	 width="349.6px" height="205.167px" viewBox="0 0 349.6 205.167" enable-background="new 0 0 349.6 205.167" xml:space="preserve">
<path fill="none" stroke="#777777" stroke-width="1.2" stroke-miterlimit="10" d="M121.274,76c0,0-3.15-55.75,50.55-60
	c52.081-4.122,55.532,52.426,58.202,59.488c0.082,0.22,0.164,0.392,0.248,0.512h-40.651"/>
<circle fill="#777777" stroke="#777777" stroke-miterlimit="10" cx="161.274" cy="48.5" r="1.75"/>
<circle fill="#777777" stroke="#777777" stroke-miterlimit="10" cx="185.774" cy="48.5" r="1.75"/>
<line fill="none" stroke="#777777" stroke-width="2" stroke-miterlimit="10" x1="1.691" y1="76" x2="61.267" y2="76"/>
<line fill="none" stroke="#777777" stroke-width="2" stroke-miterlimit="10" x1="289.024" y1="76" x2="348.6" y2="76"/>
<line fill="none" stroke="#777777" stroke-width="2" stroke-miterlimit="10" x1="105.191" y1="76" x2="158.87" y2="76"/>
<line fill="none" stroke="#777777" stroke-width="2" stroke-miterlimit="10" x1="189.741" y1="76" x2="245.769" y2="76"/>
<path fill="none" stroke="#777777" stroke-width="1.2" stroke-miterlimit="10" d="M82.44,65.25
	c-22.541,0.625-21.083,12.993-21.083,12.993c-0.75,14.409,3.417,14.09,3.417,14.09c3.917-0.833,4.75-6.417,5.083-10.417
	s1.833-3.667,1.833-3.667c1.417,1.083,1.083,4.167,1.083,4.167c0,15.333,3.917,15.75,3.917,15.75C77.857,97.917,78.274,97,78.274,97
	c3.333-4.25,2.833-14.583,2.833-14.583c0.917-4.5,2.333-0.47,2.333-0.47l0.333,3.637c2.833,15.5,5.75,12.917,5.75,12.917
	c3.75-2.25,3-11.833,3-11.833c-0.083-8.417,2.833-5.417,2.833-5.417c1.333,1.75,1.333,6,1.333,6c-0.167,9,3.5,7.25,3.5,7.25
	c7.5-5.333,4.083-21.25,4.083-21.25S102.598,64.691,82.44,65.25z"/>
<path fill="none" stroke="#777777" stroke-width="1.2" stroke-miterlimit="10" d="M268.379,65.25
	c22.541,0.625,21.082,12.993,21.082,12.993c0.75,14.409-3.416,14.09-3.416,14.09c-3.916-0.833-4.75-6.417-5.084-10.417
	c-0.332-4-1.832-3.667-1.832-3.667c-1.416,1.083-1.084,4.167-1.084,4.167c0,15.333-3.916,15.75-3.916,15.75
	c-1.166-0.249-1.584-1.166-1.584-1.166c-3.334-4.25-2.834-14.583-2.834-14.583c-0.916-4.5-2.332-0.47-2.332-0.47l-0.334,3.637
	c-2.834,15.5-5.75,12.917-5.75,12.917c-3.75-2.25-3-11.833-3-11.833c0.084-8.417-2.834-5.417-2.834-5.417
	c-1.332,1.75-1.332,6-1.332,6c0.166,9-3.5,7.25-3.5,7.25c-7.5-5.333-4.084-21.25-4.084-21.25S248.222,64.691,268.379,65.25z"/>
<path fill="none" stroke="#777777" stroke-width="1.2" stroke-miterlimit="10" d="M159.431,65.75c0,0-4.656,55.669,1.594,64.391
	c6.025,11.192,15.75,9.012,20.75,6.687c5-2.326,12.358-10.742,9.75-36.035c-1.25-15.987-3.031-34.896-3.031-34.896"/>
<g>
	
		<text transform="matrix(0.9802 -0.1982 0.1982 0.9802 69.6543 137.8823)" fill="#777777" font-family="'Optima-Italic'" font-size="21.6639">Killroy</text>
	
		<text transform="matrix(0.9802 -0.1982 0.1982 0.9802 91.0088 156.0513)" fill="#777777" font-family="'Optima-Italic'" font-size="21.6639">Was</text>
	
		<text transform="matrix(0.9802 -0.1982 0.1982 0.9802 108.7407 173.4722)" fill="#777777" font-family="'Optima-Italic'" font-size="21.6639">Here  </text>
</g>
</svg>
